# xmcd
#
# Track frame offsets:
# 150
# 22885
# 41699
# 57009
# 72280
# 91833
# 110824
# 135281
# 153624
# 171131
# 186152
# 208829
# 224769
# 238730
# 257321
# 274212
# 294810
# 312789
# 330671
#
# Disc length: 4456 seconds
#
#
# Revision: 0
# Processed by: cddbd v1.5.1PL0 Copyright (c) Steve Scherf et al.
# Submitted via: FreeRIP 2.93 
#
DISCID=13116613
DTITLE=Zsa Zsa Padilla - Hiram-A Divine Collection
DYEAR=2004
DGENRE=Easy Listening
TTITLE0=Point of No Return
TTITLE1=Hiram
TTITLE2=Ever Since
TTITLE3=Hinanap-hanap
TTITLE4=Iiwan Mo Na Ba
TTITLE5=White Lines
TTITLE6=Tell Her
TTITLE7=Dead Serious
TTITLE8=The Feeling
TTITLE9=Narito Ka
TTITLE10=Umiinit
TTITLE11=Painful Thoughts
TTITLE12=Drivin' Me Mad
TTITLE13=Litung-lito't Gulong-gulo
TTITLE14=Hanggang Saan ang Walang Wakas
TTITLE15=Kapag Puso'y Sinugatan
TTITLE16=Mula Sa Puso
TTITLE17=Ikaw Lamang
TTITLE18=Mambobola (Reprise)
EXTD=
EXTT0=
EXTT1=
EXTT2=
EXTT3=
EXTT4=
EXTT5=
EXTT6=
EXTT7=
EXTT8=
EXTT9=
EXTT10=
EXTT11=
EXTT12=
EXTT13=
EXTT14=
EXTT15=
EXTT16=
EXTT17=
EXTT18=
PLAYORDER=
